<svg width="28" height="28" viewBox="0 0 28 28" fill="none" xmlns="http://www.w3.org/2000/svg">
<path d="M1.62968 26.9651C2.12625 27.5033 4.17156 26.5648 5.78593 25.8123C6.99562 25.2501 11.8366 23.2639 14.2428 22.2336C14.8925 21.9558 15.8375 21.5926 16.5178 20.698C17.1216 19.9017 18.7228 16.5198 15.4984 13.0942C12.2259 9.61608 8.855 10.5764 7.595 11.4689C6.85343 11.9939 6.24968 13.1773 5.97843 13.7789C4.83218 16.3208 3.19812 20.978 2.53312 22.8089C2.04531 24.1586 1.1375 26.4314 1.62968 26.9651Z" fill="#FFC107"/>
<path d="M5.65471 14.5449C5.68533 14.9255 5.76189 15.5446 6.02439 16.7368C6.20377 17.5549 6.49689 18.4124 6.73533 18.979C7.45064 20.683 8.45471 21.3699 9.47189 21.9212C11.2 22.8574 12.3747 23.0324 12.3747 23.0324L10.966 23.6077C10.966 23.6077 10.1128 23.4305 8.94908 22.8574C7.84002 22.3105 6.68502 21.3852 5.84064 19.574C5.47533 18.7887 5.26314 18.0274 5.14064 17.4237C4.98971 16.6755 4.96564 16.2512 4.96564 16.2512L5.65471 14.5449ZM3.92439 18.9812C3.92439 18.9812 4.09939 20.4009 5.27189 22.1924C6.64564 24.288 8.56408 24.6315 8.56408 24.6315L7.28877 25.1565C7.28877 25.1565 5.86471 24.7212 4.51064 22.8727C3.66627 21.7199 3.43002 20.3418 3.43002 20.3418L3.92439 18.9812ZM2.71033 22.3455C2.71033 22.3455 3.02971 23.5705 3.72971 24.4849C4.56314 25.5765 5.62408 25.8937 5.62408 25.8937L4.64627 26.3268C4.64627 26.3268 3.90471 26.1715 3.09314 25.1434C2.47627 24.3624 2.30127 23.4655 2.30127 23.4655L2.71033 22.3455Z" fill="#FF8F00"/>
<path opacity="0.44" d="M2.17854 25.4558C2.13479 25.3574 2.13479 25.2458 2.18073 25.1496L7.75229 13.5952L8.66885 17.0405L2.80635 25.5083C2.64885 25.7446 2.29448 25.714 2.17854 25.4558Z" fill="#FFFDE7"/>
<path d="M9.11102 18.1977C11.7141 21.2427 14.6782 20.8621 15.6648 20.0921C16.6535 19.3199 17.4345 16.6665 14.8423 13.6718C12.1254 10.5349 9.04977 11.4296 8.33883 12.1077C7.6279 12.7859 6.72227 15.4043 9.11102 18.1977Z" fill="url(#paint0_linear_202_32)"/>
<path d="M18.0512 19.451C17.1018 18.6548 16.5965 18.797 15.9184 19.0791C15.0434 19.4423 13.6674 19.7113 11.7993 19.0791L12.3615 17.7251C13.4706 18.0991 14.2734 17.9176 14.9668 17.5085C15.8593 16.9835 17.0799 16.2638 18.9787 17.8585C19.7706 18.5235 20.5821 18.9654 21.1771 18.7641C21.6103 18.6198 21.8399 17.9745 21.9559 17.4604C21.9668 17.4145 21.9843 17.2832 21.9974 17.1673C22.1024 16.3645 22.2774 14.632 23.5681 13.746C24.9484 12.7988 26.3987 12.7988 26.3987 12.7988L26.6612 15.4063C25.994 15.3079 25.5303 15.4435 25.1387 15.6601C23.6643 16.4804 24.9484 19.6304 22.6537 20.6891C20.4465 21.7151 18.6418 19.9454 18.0512 19.451Z" fill="#03A9F4"/>
<path d="M9.9314 16.1263L8.98202 15.2753C10.7255 13.3284 10.2661 11.8978 9.9314 10.8566C9.86359 10.6466 9.80015 10.4475 9.75859 10.2572C9.60984 9.58344 9.57921 8.99719 9.62515 8.48531C8.95577 7.65188 8.66046 6.77906 8.64077 6.72C8.2339 5.48844 8.54015 4.2875 9.24234 3.16094C10.662 0.875 13.2323 0.875 13.2323 0.875L14.0898 3.16969C13.438 3.14344 11.3008 3.17625 10.6445 4.21094C9.81546 5.51469 10.3601 6.31969 10.3995 6.41156C10.5592 6.20375 10.7211 6.0375 10.8655 5.90844C11.9133 4.97875 12.8233 4.84531 13.403 4.89781C14.0548 4.95687 14.6455 5.285 15.0676 5.82313C15.5292 6.41375 15.7195 7.18156 15.573 7.87937C15.4308 8.55969 14.978 9.135 14.2976 9.50031C13.1098 10.1391 12.1211 10.0516 11.4583 9.83062C11.4626 9.84594 11.4648 9.86344 11.4692 9.87875C11.4933 9.98812 11.5414 10.1412 11.5983 10.3184C11.9855 11.5172 12.7051 13.4203 9.9314 16.1263ZM11.5392 7.91656C11.6661 8.00844 11.7995 8.085 11.9373 8.13969C12.3967 8.32344 12.8976 8.26219 13.4664 7.95594C13.8011 7.77656 13.8405 7.58406 13.8536 7.52063C13.893 7.33031 13.8273 7.0875 13.6851 6.90594C13.5605 6.74625 13.4161 6.66313 13.2433 6.64562C12.9151 6.61719 12.4711 6.825 12.027 7.22094C11.8148 7.41125 11.653 7.64531 11.5392 7.91656Z" fill="#F44336"/>
<path d="M13.731 16.4827L12.3726 16.4455C12.3726 16.4455 13.0179 12.8011 15.1069 12.1886C15.4985 12.0749 15.9272 11.9589 16.3582 11.8955C16.6141 11.8561 17.0188 11.7971 17.2179 11.7227C17.2638 11.3792 17.1194 10.9417 16.9576 10.4452C16.8307 10.0602 16.6994 9.66424 16.6294 9.23111C16.4938 8.38674 16.7191 7.6408 17.2638 7.12674C17.9288 6.5033 19.0029 6.30424 20.2147 6.57986C20.906 6.73736 21.4157 7.07643 21.8641 7.37393C22.5051 7.80049 22.8791 8.01705 23.6622 7.48986C24.6094 6.85111 23.3713 4.3508 22.7129 2.90705L25.1694 1.8833C25.4997 2.60518 27.0944 6.31955 26.0422 8.43924C25.6879 9.15236 25.0776 9.62486 24.2769 9.80205C22.5357 10.1914 21.5163 9.5133 20.7726 9.01893C20.4204 8.78486 20.1119 8.60111 19.7772 8.50486C17.4519 7.84205 20.6982 11.2633 19.1779 12.8011C18.2657 13.7221 16.0366 13.9649 15.8922 13.9999C14.4572 14.3455 13.731 16.4827 13.731 16.4827Z" fill="#F48FB1"/>
<path d="M9.62305 8.48535C9.58149 8.9666 9.5618 9.25316 9.68649 9.87879C10.2881 10.3207 11.5984 10.3207 11.5984 10.3207C11.5415 10.1435 11.4912 9.99035 11.4693 9.88098C11.4649 9.86566 11.4627 9.84816 11.4584 9.83285C10.1262 9.16785 9.62305 8.48535 9.62305 8.48535Z" fill="#C92B27"/>
<path d="M6.89713 10.6399L4.63525 9.53082L5.76182 7.90332L7.53588 9.07801L6.89713 10.6399Z" fill="#FFC107"/>
<path d="M3.56348 7.56881C2.40848 7.4135 1.2316 6.4335 1.10254 6.32193L2.23785 4.98975C2.58129 5.28068 3.30973 5.7685 3.79754 5.83412L3.56348 7.56881Z" fill="#FB8C00"/>
<path d="M5.60195 4.65277L3.93945 4.10809C4.12977 3.52621 4.18008 2.8984 4.08164 2.29246L5.80977 2.01465C5.95195 2.89402 5.87977 3.80621 5.60195 4.65277Z" fill="#03A9F4"/>
<path d="M15.9849 3.35258L17.6944 2.97852L18.1881 5.23514L16.4786 5.6092L15.9849 3.35258Z" fill="#FB8C00"/>
<path d="M20.2256 3.8873L19.0225 2.61637C19.6525 2.01918 19.7968 1.23824 19.7968 1.22949L21.525 1.51168C21.5031 1.64949 21.2821 2.88762 20.2256 3.8873Z" fill="#FFC107"/>
<path d="M20.8936 10.6267L22.422 10.1489L22.9439 11.8193L21.4155 12.2971L20.8936 10.6267Z" fill="#FB8C00"/>
<path d="M21.3391 24.7255L19.6 24.5199C19.6744 23.9008 19.2128 23.1418 19.0859 22.9733L20.4859 21.9233C20.5909 22.0612 21.5031 23.3233 21.3391 24.7255Z" fill="#F44336"/>
<path d="M26.3307 22.5073C25.6767 22.4089 25.0073 22.3695 24.3467 22.3936L24.2876 20.6436C25.0554 20.6173 25.832 20.6611 26.591 20.777L26.3307 22.5073Z" fill="#FB8C00"/>
<path d="M23.978 24.9162L25.2074 23.6709L26.8994 25.3417L25.6701 26.5868L23.978 24.9162Z" fill="#F48FB1"/>
<path d="M20.3661 13.8545L21.6305 15.3002L20.1848 16.5646L18.9204 15.1189L20.3661 13.8545Z" fill="#F44336"/>
<defs>
<linearGradient id="paint0_linear_202_32" x1="16.2716" y1="13.5272" x2="9.76005" y2="17.4341" gradientUnits="userSpaceOnUse">
<stop offset="0.024" stop-color="#8F4700"/>
<stop offset="1" stop-color="#703E2D"/>
</linearGradient>
</defs>
</svg>
