<svg width="18" height="19" viewBox="0 0 18 19" fill="none" xmlns="http://www.w3.org/2000/svg">
<path d="M1 12.9003C1 10.4965 1 9.29374 1.7032 8.54744C2.4056 7.80029 3.5376 7.80029 5.8 7.80029H12.2C14.4624 7.80029 15.5944 7.80029 16.2968 8.54744C17 9.29374 17 10.4965 17 12.9003C17 15.3041 17 16.5068 16.2968 17.2531C15.5944 18.0003 14.4624 18.0003 12.2 18.0003H5.8C3.5376 18.0003 2.4056 18.0003 1.7032 17.2531C1 16.5068 1 15.3041 1 12.9003Z" stroke="black"/>
<path d="M4.2002 7.8V6.1C4.2002 4.7474 4.70591 3.45019 5.60608 2.49376C6.50626 1.53732 7.72716 1 9.0002 1C10.2732 1 11.4941 1.53732 12.3943 2.49376C13.2945 3.45019 13.8002 4.7474 13.8002 6.1V7.8" stroke="black" stroke-linecap="round"/>
<path d="M5.7998 12.8999H5.807M8.9926 12.8999H8.9998M12.1926 12.8999H12.1998" stroke="black" stroke-width="2" stroke-linecap="round" stroke-linejoin="round"/>
</svg>
