<svg width="20" height="20" viewBox="0 0 20 20" fill="none" xmlns="http://www.w3.org/2000/svg">
<path fill-rule="evenodd" clip-rule="evenodd" d="M4.77744 1.70258C5.79161 0.694251 7.46161 0.873418 8.31077 2.00842L9.36244 3.41175C10.0541 4.33508 9.99244 5.62508 9.17161 6.44092L8.97327 6.63925C8.95078 6.72251 8.9485 6.80993 8.96661 6.89425C9.01911 7.23425 9.30327 7.95425 10.4933 9.13758C11.6833 10.3209 12.4083 10.6042 12.7533 10.6576C12.8402 10.6751 12.93 10.6725 13.0158 10.6501L13.3558 10.3118C14.0858 9.58675 15.2058 9.45092 16.1091 9.94175L17.7008 10.8084C19.0649 11.5484 19.4091 13.4018 18.2924 14.5126L17.1083 15.6893C16.7349 16.0601 16.2333 16.3693 15.6216 16.4268C14.1133 16.5676 10.5991 16.3876 6.90494 12.7151C3.45744 9.28675 2.79577 6.29675 2.71161 4.82342C2.66994 4.07842 3.02161 3.44842 3.46994 3.00342L4.77744 1.70258ZM7.31077 2.75758C6.88827 2.19342 6.10161 2.14842 5.65827 2.58925L4.34994 3.88925C4.07494 4.16258 3.94327 4.46425 3.95994 4.75258C4.02661 5.92342 4.55994 8.62092 7.78661 11.8293C11.1716 15.1943 14.2974 15.2951 15.5058 15.1818C15.7524 15.1593 15.9974 15.0309 16.2266 14.8034L17.4099 13.6259C17.8916 13.1476 17.7858 12.2759 17.1041 11.9059L15.5124 11.0401C15.0724 10.8018 14.5574 10.8801 14.2374 11.1984L13.8583 11.5759L13.4166 11.1326C13.8583 11.5759 13.8566 11.5768 13.8566 11.5768L13.8558 11.5784L13.8533 11.5809L13.8474 11.5859L13.8349 11.5976C13.7998 11.6302 13.7619 11.6598 13.7216 11.6859C13.6549 11.7301 13.5666 11.7793 13.4558 11.8201C13.2308 11.9043 12.9324 11.9493 12.5641 11.8926C11.8416 11.7818 10.8841 11.2893 9.61161 10.0243C8.33994 8.75925 7.84327 7.80758 7.73161 7.08592C7.67411 6.71758 7.71994 6.41925 7.80494 6.19425C7.85172 6.06764 7.9187 5.94944 8.00327 5.84425L8.02994 5.81508L8.04161 5.80258L8.04661 5.79758L8.04911 5.79508L8.05078 5.79342L8.29078 5.55508C8.64744 5.19925 8.69744 4.61008 8.36161 4.16092L7.31077 2.75758Z" fill="black"/>
</svg>
