<svg width="28" height="28" viewBox="0 0 28 28" fill="none" xmlns="http://www.w3.org/2000/svg">
<path d="M22.3812 9.10563L18.922 5.64413C16.5572 3.2758 15.3754 2.09396 14.1049 2.37396C12.8344 2.65396 12.2604 4.22546 11.1089 7.3673L10.3295 9.49413C10.0227 10.3318 9.86869 10.7506 9.59219 11.075C9.46859 11.2208 9.32753 11.3509 9.17219 11.4623C8.82686 11.7108 8.39752 11.8286 7.53886 12.0655C5.60219 12.5998 4.63269 12.867 4.26752 13.5005C4.10967 13.7747 4.02753 14.0859 4.02952 14.4023C4.03419 15.1338 4.74469 15.8443 6.16452 17.2665L7.81652 18.9185L2.59452 24.1451C2.4354 24.3138 2.34828 24.5379 2.35166 24.7698C2.35504 25.0016 2.44865 25.2231 2.61263 25.387C2.7766 25.551 2.99803 25.6446 3.2299 25.648C3.46178 25.6514 3.68584 25.5643 3.85452 25.4051L9.07536 20.1785L10.7857 21.8911C12.216 23.3215 12.9312 24.0378 13.6674 24.0378C13.9765 24.0378 14.281 23.9585 14.5505 23.8045C15.1899 23.4393 15.4582 22.464 15.996 20.5121C16.2317 19.6546 16.3495 19.2265 16.5969 18.88C16.7057 18.7291 16.831 18.5922 16.9725 18.4693C17.2934 18.1916 17.7099 18.0353 18.5417 17.7226L20.693 16.9141C23.801 15.7475 25.355 15.163 25.628 13.8971C25.9022 12.6301 24.7297 11.4553 22.3812 9.10563Z" fill="#F44336"/>
</svg>
