<svg width="24" height="24" viewBox="0 0 24 24" fill="none" xmlns="http://www.w3.org/2000/svg">
<path fill-rule="evenodd" clip-rule="evenodd" d="M20.5292 3.14125L3.60195 9.26177L9.24122 12.5257L14.2137 7.55184C14.466 7.29978 14.808 7.15824 15.1646 7.15837C15.5212 7.15849 15.8631 7.30027 16.1152 7.55251C16.3673 7.80476 16.5088 8.1468 16.5087 8.5034C16.5086 8.86 16.3668 9.20194 16.1145 9.454L11.1407 14.4278L14.4073 20.0658L20.5292 3.14125ZM20.9634 0.124683C22.5698 -0.457392 24.1265 1.09929 23.5444 2.7057L16.4439 22.3389C15.8605 23.9494 13.6612 24.1457 12.8022 22.6629L8.47767 15.1914L1.00614 10.8668C-0.476599 10.0078 -0.280333 7.8086 1.33012 7.22518L20.9634 0.124683Z" fill="#3C61DD"/>
</svg>
